Coordinates
version=1
nRows=6
nColumns=63
inDegrees=yes

Units are S.I. units (second, meters, Newtons, ...)
If the header above contains a line with 'inDegrees', this indicates whether rotational values are in degrees (yes) or radians (no).

endheader
time	pelvis_tilt	pelvis_list	pelvis_rotation	pelvis_tx	pelvis_ty	pelvis_tz	hip_flexion_r	hip_adduction_r	hip_rotation_r	knee_angle_r	knee_angle_r_beta	ankle_angle_r	subtalar_angle_r	mtp_angle_r	hip_flexion_l	hip_adduction_l	hip_rotation_l	knee_angle_l	knee_angle_l_beta	ankle_angle_l	subtalar_angle_l	mtp_angle_l	L5_S1_Flex_Ext	L5_S1_Lat_Bending	L5_S1_axial_rotation	L4_L5_Flex_Ext	L4_L5_Lat_Bending	L4_L5_axial_rotation	L3_L4_Flex_Ext	L3_L4_Lat_Bending	L3_L4_axial_rotation	L2_L3_Flex_Ext	L2_L3_Lat_Bending	L2_L3_axial_rotation	L1_L2_Flex_Ext	L1_L2_Lat_Bending	L1_L2_axial_rotation	L1_T12_Flex_Ext	L1_T12_Lat_Bending	L1_T12_axial_rotation	Abs_r3	Abs_r2	Abs_r1	Abs_t1	Abs_t2	neck_flexion	neck_bending	neck_rotation	arm_flex_r	arm_add_r	arm_rot_r	elbow_flex_r	pro_sup_r	wrist_flex_r	wrist_dev_r	arm_flex_l	arm_add_l	arm_rot_l	elbow_flex_l	pro_sup_l	wrist_flex_l	wrist_dev_l
3.533333	1.252596	0.405249	93.901634	0.195444	0.706076	0.541330	-3.450918	5.196093	2.076263	9.960870	0.173850	31.812306	-14.304543	0.000000	-1.764330	-3.987993	-8.290173	14.035334	0.244963	39.063745	14.394779	0.000000	-0.166661	0.486086	-1.408665	-0.309505	0.646495	-1.496707	-0.273807	1.181870	-1.496707	-0.190476	1.181870	-1.232582	-0.154761	0.991227	-1.144540	-0.095230	0.752947	-1.056499	-1.190440	5.498703	-7.834573	0.000000	0.000000	14.128310	-2.328521	1.809219	67.231633	-20.040769	9.546354	120.904227	85.832132	-1.674606	1.059426	65.059421	-49.178288	8.155433	130.678976	89.499610	-9.110923	7.455118
3.550000	1.644413	0.706006	94.882458	0.194419	0.705090	0.541260	-3.522534	5.696261	2.346248	10.018933	0.174863	32.834435	-14.087919	0.000000	-1.356034	-4.539824	-7.369139	14.961489	0.261127	40.107950	14.397299	0.000000	-0.170645	0.527655	-1.428253	-0.316905	0.701781	-1.517519	-0.280353	1.282939	-1.517519	-0.195030	1.282939	-1.249722	-0.158461	1.075993	-1.160456	-0.097507	0.817337	-1.071190	-1.218901	5.968934	-7.943517	0.000000	0.000000	12.846356	-2.693402	0.932664	59.891250	-19.054387	9.906766	123.114082	86.284799	-0.458000	1.226079	53.973952	-44.593273	4.651452	132.760539	89.525737	-6.601842	7.831658
3.566667	2.033400	0.972222	95.758334	0.193380	0.703745	0.541200	-3.496271	6.168742	2.576531	10.206903	0.178144	33.949361	-13.678931	0.000000	-0.934812	-5.051397	-6.365625	15.881493	0.277184	41.145838	14.159236	0.000000	-0.174082	0.568284	-1.408994	-0.323288	0.755817	-1.497057	-0.285999	1.381725	-1.497057	-0.198958	1.381725	-1.232870	-0.161653	1.158844	-1.144808	-0.099470	0.880271	-1.056746	-1.243451	6.428537	-7.836404	0.000000	0.000000	11.695954	-2.977313	-0.053776	52.514666	-18.084166	10.229932	124.258019	86.792206	0.958465	1.446877	43.651291	-39.487146	2.310983	133.380487	89.013007	-4.372435	8.060294
3.583333	2.405646	1.190790	96.524929	0.192339	0.702070	0.541129	-3.367766	6.594895	2.720931	10.524825	0.183693	35.134618	-13.073940	0.000000	-0.506524	-5.514529	-5.345864	16.786740	0.292984	42.148716	13.743117	0.000000	-0.178120	0.606657	-1.358407	-0.330787	0.806853	-1.443307	-0.292633	1.475025	-1.443307	-0.203573	1.475025	-1.188606	-0.165402	1.237094	-1.103706	-0.101778	0.939711	-1.018805	-1.272293	6.862621	-7.555051	0.000000	0.000000	10.741413	-3.181715	-1.091179	45.232190	-17.127096	10.565479	124.257270	87.345611	2.237794	1.698905	34.418310	-34.043472	1.157211	132.320196	88.165073	-2.707076	8.116555
3.600000	2.742712	1.345912	97.118645	0.191424	0.700092	0.541049	-3.125888	6.953282	2.803494	10.967065	0.191411	36.380403	-12.270319	0.000000	-0.066266	-5.915673	-4.453971	17.679402	0.308564	43.108080	13.240250	0.000000	-0.182337	0.640598	-1.268407	-0.338619	0.851995	-1.347682	-0.299562	1.557550	-1.347682	-0.208393	1.557550	-1.109856	-0.169319	1.306307	-1.030581	-0.104188	0.992286	-0.951305	-1.302418	7.246572	-7.054499	0.000000	0.000000	10.017247	-3.355071	-2.184823	38.124004	-16.145984	10.791119	123.154606	87.937056	3.377284	2.047348	26.396798	-28.467895	0.991140	129.409093	87.370340	-1.552969	8.086634
3.616667	3.023423	1.427302	97.521741	0.190703	0.697859	0.540954	-2.766531	7.221789	2.817271	11.525548	0.201159	37.667238	-11.278341	0.000000	0.389581	-6.236821	-3.720644	18.549236	0.323745	44.008322	12.679638	0.000000	-0.185997	0.667943	-1.146527	-0.345415	0.888365	-1.218185	-0.305575	1.624037	-1.218185	-0.212576	1.624037	-1.003211	-0.172717	1.362070	-0.931553	-0.106279	1.034644	-0.859895	-1.328559	7.555909	-6.376638	0.000000	0.000000	9.525256	-3.514150	-3.269542	31.292804	-15.129325	10.906189	121.048373	88.527299	4.243045	2.459207	19.705663	-22.999429	1.733767	124.637052	86.720218	-0.860134	7.964597
